<?xml version="1.0" encoding="utf-8"?>
<!-- Generator: Adobe Illustrator 27.5.0, SVG Export Plug-In . SVG Version: 6.00 Build 0)  -->
<svg version="1.1" xmlns="http://www.w3.org/2000/svg" xmlns:xlink="http://www.w3.org/1999/xlink" x="0px" y="0px"
	 viewBox="0 0 750 500" style="enable-background:new 0 0 750 500;" xml:space="preserve">
<g id="BACKGROUND">
</g>
<g id="OBJECTS">
	<g>
		<g>
			<path style="fill:#DDEAFA;" d="M648.006,399.633c5.99-11.058,7.901-24.07,3.222-39.184c-2.394-7.732-7.405-14.747-14.319-18.955
				c-14.936-9.091-30.947-6.056-46.662-11.553c-26.842-9.39-38.864-42.154-65.417-51.734c-26.865-9.693-57.617-12.397-85.501-5.602
				c-17.335,4.224-34.673,11.28-52.381,9.103c-14.236-1.75-26.992-9.301-40.461-14.233c-19.71-7.217-41.43-8.535-61.957-4.323
				c-20.089,4.122-32.222,9.852-44.88,25.975c-15.094,19.225-37.21,33.334-61.424,36.663c-16.229,2.231-33.415,3.028-47.393,12.712
				c-7.39,5.12-11.913,15.493-14.777,23.865c-6.859,20.046-2.994,45.249,10.821,61.784c16.835,20.148,39.505,23.998,64.403,26.009
				c26.318,2.126,53.444-7.781,80.131-7.118c37.939,0.943,74.188,15.049,111.53,21.815c68.413,12.396,139.279-0.186,205.057-22.706
				C611.321,434.166,636.801,420.317,648.006,399.633z"/>
		</g>
		<g>
			<g>
				<path style="fill:#FF91A0;" d="M398.327,191.943c-4.326-2.979-9.183-1.391-13.8-0.14c-0.638,0.173-2.905,0.284-2.917,1.19
					c-0.01,0.746,1.318,1.113,1.885,1.2c1.6,0.248,3.271-0.361,4.704-1.015c-1.477,1.378-3.458,1.96-5.426,2.175
					c-1.956,0.214-4.031-0.134-5.934,0.417c-0.997,0.288-0.779,1.271-0.064,1.795c0.638,0.467,1.824,0.311,2.563,0.312
					c1.112,0.001,2.225-0.081,3.322-0.266c0.92-0.156,2.305-0.32,3.08-0.825c-1.718,1.121-3.693,1.76-5.698,2.13
					c-1.021,0.188-2.054,0.309-3.088,0.396c-0.607,0.051-1.947,0-1.803,1.026c0.036,0.258,0.227,0.468,0.439,0.619
					c0.641,0.454,1.482,0.481,2.268,0.471c2.223-0.031,4.513,0.02,6.676-0.559c-1.994,1.213-4.226,2.038-6.384,2.9
					c-0.391,0.156-1.193,0.545-0.965,1.103c0.119,0.29,0.686,0.529,0.971,0.627c0.689,0.237,1.466,0.106,2.152-0.072
					c1.003-0.26,1.974-0.542,2.959-0.878c0.921-0.314,1.847-0.629,2.808-0.777c2.101-0.323,4.197,0.541,6.097,1.311
					c2.453,0.995,4.744,1.326,7.398,1.328c4.076,0.003,8.152-0.188,12.211-0.571"/>
			</g>
			<path style="fill:#FF91A0;" d="M397.124,293.829l-4.607,9.862c0,0-10.401-5.341-14.679-0.259l28.74,10.149l6.175-19.71
				L397.124,293.829z"/>
			<g>
				<path style="fill:#10124E;" d="M392.517,303.691l0.184-0.394c5.201,1.593,10.401,3.186,15.602,4.78l-1.725,5.505l-28.74-10.149
					C382.116,298.35,392.517,303.691,392.517,303.691z"/>
			</g>
			<path style="fill:#FF91A0;" d="M407.118,304.516l-3.12,10.428c0,0-11.068-3.767-14.56,1.884l29.913,5.85l3.236-20.4
				L407.118,304.516z"/>
			<g>
				<path style="fill:#10124E;" d="M403.998,314.944l0.125-0.417c5.377,0.818,10.754,1.636,16.132,2.454l-0.904,5.697l-29.913-5.85
					C392.93,311.177,403.998,314.944,403.998,314.944z"/>
			</g>
			<path style="fill:#0A1656;" d="M433.069,208.631c-9.796,1.496-32.508,9.016-38.094,21.535c-3.097,6.941-0.473,58.212,0.22,68.463
				h16.24l21.263-75.899l18.977-11.161C451.675,211.569,442.865,207.135,433.069,208.631z"/>
			<g>
				<polygon style="fill:#62AFE8;" points="494,298.16 439.711,272.019 441.132,269.083 495.421,295.224 				"/>
			</g>
			<g>
				<polygon style="fill:#62AFE8;" points="436.074,298.16 434.639,295.224 489.419,269.083 490.853,272.019 				"/>
			</g>
			<g>
				<path style="fill:#262154;" d="M430.349,326.378L430.349,326.378c-1.321-0.205-2.225-1.443-2.019-2.763l11.691-75.169
					l4.783,0.744l-11.691,75.169C432.907,325.679,431.669,326.583,430.349,326.378z"/>
				<path style="fill:#262154;" d="M500.216,326.378L500.216,326.378c1.321-0.205,2.225-1.443,2.019-2.763l-11.691-75.169
					l-4.783,0.744l11.691,75.169C497.659,325.679,498.896,326.583,500.216,326.378z"/>
			</g>
			<path style="fill:#FCC26F;" d="M495.589,247.91h-58.587v-93.035h46.351c8.853,0,15.92,7.378,15.54,16.223L495.589,247.91z"/>
			<g>
				<path style="fill:#5C3CA0;" d="M477.788,186.219c2.654,0.144,5.45-0.191,7.649-1.684c2.639-1.792,4.034-5.075,4.028-8.265
					c-0.006-3.19-1.268-6.278-3.044-8.928c-0.988-1.474-2.175-2.929-2.404-4.689c-0.335-2.572,1.444-4.867,2.564-7.207
					c1.941-4.056,1.687-9.509-1.753-12.405c-1.447-1.218-3.346-1.918-4.492-3.423c-1.09-1.431-1.299-3.334-1.355-5.132
					c-0.186-5.955,2.239-15.605-3.812-19.333c-1.535-0.945-3.309-1.419-5.072-1.796c0.077-1.047-0.905-1.83-1.78-2.41
					c-4.879-3.232-11.661-3.271-17.318-2.494c-5.436,0.746-10.878,3.256-13.927,7.818c-1.89,2.828-2.739,6.248-2.969,9.641
					c-0.288,4.238,0.901,10.641-2.151,14.173c-1.219,1.411-3.071,2.059-4.689,2.985c-3.439,1.969-5.982,5.439-6.823,9.311
					c-0.842,3.872,0.03,8.084,2.341,11.303c0.51,0.71,1.116,1.468,1.049,2.339c-0.047,0.619-0.431,1.153-0.802,1.651
					c-1.966,2.637-4.039,5.397-4.514,8.652c-0.837,5.732,4.552,12.994,10.707,11.056"/>
			</g>
			<path style="fill:#62AFE8;" d="M452.906,158.738c0,0-13.612-4.305-19.528,4.179c-5.917,8.484-7.363,19.514-11.167,20.951
				s-31.017-3.007-32.703,11.929c-1.587,14.064,12.713,15.398,15.878,14.558c3.165-0.841,18.41,0.809,29.283-15.146
				c0,0-2.742,9.528-1.246,21.769l39.732-4.785l0.98-13.633l16.079-10.903c0,0-4.638-23.16-16.413-25.647
				c-11.775-2.487-20.897-4.232-20.897-4.232"/>
			<path style="fill:#569BD0;" d="M452.906,157.777v0.961c0,0-1.659-0.523-4.068-0.845v1.755c0,4.034,3.27,7.304,7.304,7.304
				c3.961,0,7.177-3.155,7.293-7.087C457.089,158.578,452.906,157.777,452.906,157.777z"/>
			<path style="fill:#ED798F;" d="M456.142,164.384L456.142,164.384c-2.947,0-5.337-2.389-5.337-5.337v-8.598h10.673v8.598
				C461.479,161.995,459.089,164.384,456.142,164.384z"/>
			<path style="fill:#EDAC69;" d="M491.09,156.94c-0.822,0.555-1.546,1.276-2.102,2.243c-1.398,2.43-1.659,5.329-1.866,8.125
				c-1.657,22.363-1.841,44.807-1.971,67.231c-0.025,4.31-0.041,8.68,1.058,12.848c0.046,0.174,0.098,0.35,0.158,0.523h9.223
				l3.305-76.813C499.152,165.074,495.952,159.735,491.09,156.94z"/>
			<g>
				<g>
					<path style="fill:#569BD0;" d="M435.573,193.188c0.096-0.065-1.05-1.459-2.205-4.073c-0.564-1.305-1.114-2.925-1.371-4.779
						c-0.245-1.846-0.179-3.949,0.591-5.96c0.756-2.018,1.916-3.774,2.791-5.478c0.888-1.706,1.493-3.337,1.885-4.733
						c0.393-1.397,0.586-2.557,0.683-3.36c0.093-0.804,0.097-1.252,0.061-1.256c-0.101-0.015-0.271,1.771-1.135,4.498
						c-0.435,1.36-1.068,2.943-1.964,4.602c-0.884,1.665-2.07,3.42-2.862,5.527c-0.809,2.114-0.861,4.332-0.576,6.236
						c0.296,1.916,0.903,3.563,1.527,4.874c0.633,1.31,1.274,2.3,1.759,2.948C435.237,192.883,435.547,193.208,435.573,193.188z"/>
				</g>
				<g>
					<path style="fill:#569BD0;" d="M434.667,173.111c0.146,0.04,0.649-1.476,0.687-3.428c0.047-1.951-0.389-3.488-0.537-3.454
						c-0.165,0.03,0.007,1.561-0.04,3.441C434.741,171.553,434.504,173.074,434.667,173.111z"/>
				</g>
			</g>
			<path style="fill:#62AFE8;" d="M394.976,295.073c0.01,0.176,0.02,0.351,0.03,0.519c2.115,0.019,4.479,0.031,6.986,0.032
				c3.922,0.002,7.513-0.022,10.302-0.063l0.124-0.441c-2.807-0.044-6.443-0.072-10.425-0.074
				C399.473,295.045,397.098,295.055,394.976,295.073z"/>
			<path style="fill:#07216D;" d="M473.157,208.623c0,0-55.523,4.602-60.992,25.27c-5.469,20.668-10.881,67.097-11.603,72.254
				l24.469,2.291l4.218-62.156c0.138-2.041,1.878-3.599,3.921-3.506c10.34,0.471,39.318,1.282,44.795-4.091
				C487.39,229.439,473.157,208.623,473.157,208.623z"/>
			<g>
				<path style="fill:#FF91A0;" d="M476.904,131.77c-0.964-0.512-2.031-0.687-3.101-0.569c-0.523,0.058-1.008-0.136-1.339-0.477
					c-4.292,1.848-10.047-1.332-13.024-7.292c-0.833-1.669-1.352-3.379-1.593-5.032c-1.311,0.691-2.713,1.336-4.206,1.905
					c-5.156,1.964-10.164,2.654-13.83,2.143c-0.24,1.049-0.378,2.138-0.378,3.26v16.234c0,6.158,4.992,11.15,11.15,11.15h6.837
					c5.606,0,10.468-3.16,12.919-7.792c2.946,1.183,6.646-0.506,8.491-3.982C480.781,137.644,479.918,133.37,476.904,131.77z"/>
			</g>
			<path style="fill:#FFEDFF;" d="M447.443,138.423c0.028,2.629,2.163,4.753,4.799,4.753c2.636,0,4.771-2.124,4.799-4.753H447.443z"
				/>
			<g>
				<g>
					<path style="fill:#C65F79;" d="M476.95,134.019c0.001-0.04-0.185-0.068-0.531-0.084c-0.346-0.035-0.851,0.024-1.458,0.183
						c-0.598,0.186-1.299,0.514-1.92,1.083c-0.617,0.566-1.163,1.32-1.57,2.183c-0.787,1.745-0.955,3.478-0.94,4.698
						c0.018,1.229,0.211,1.969,0.278,1.959c0.091-0.01,0.045-0.757,0.131-1.946c0.088-1.182,0.319-2.835,1.056-4.468
						c0.381-0.807,0.869-1.501,1.408-2.037c0.544-0.536,1.155-0.866,1.69-1.086C476.185,134.104,476.955,134.136,476.95,134.019z"/>
				</g>
				<g>
					<path style="fill:#C65F79;" d="M473.44,141.375c0.051,0.049,0.354-0.142,0.635-0.634c0.279-0.48,0.494-1.293,0.276-2.158
						c-0.222-0.864-0.8-1.476-1.274-1.763c-0.482-0.298-0.84-0.32-0.861-0.253c-0.031,0.081,0.254,0.239,0.613,0.577
						c0.358,0.332,0.783,0.879,0.963,1.581c0.177,0.702,0.067,1.386-0.089,1.849C473.549,141.043,473.374,141.319,473.44,141.375z"
						/>
				</g>
			</g>
			<path style="fill:#5C3CA0;" d="M472.464,130.725c-0.261-0.269-0.429-0.629-0.429-1.044v-3.973
				c0-8.071-6.543-14.613-14.613-14.613h-3.374c-6.948,0-12.753,4.854-14.235,11.354c3.666,0.511,8.674-0.179,13.83-2.143
				c1.492-0.569,2.894-1.214,4.206-1.905c0.241,1.653,0.759,3.363,1.593,5.032C462.417,129.392,468.172,132.572,472.464,130.725z"/>
			<g>
				<path style="fill:#07216D;" d="M452.883,175.287h-15.699v-3.745c0-0.787,0.638-1.426,1.426-1.426h12.847
					c0.787,0,1.426,0.638,1.426,1.426V175.287z"/>
				<path style="fill:#FCC26F;" d="M460.094,219.538h-30.121c-1.436,0-2.6-1.164-2.6-2.6v-40.739c0-1.436,1.164-2.6,2.6-2.6h30.121
					c1.436,0,2.6,1.164,2.6,2.6v40.739C462.694,218.374,461.53,219.538,460.094,219.538z"/>
				<g style="opacity:0.3;">
					<path style="fill:#FCC26F;" d="M457.705,207.174c-3.643-0.093-7.419-0.02-10.755-1.487c-5.283-2.323-8.283-8.004-9.762-13.583
						s-1.852-11.453-3.901-16.848c-0.212-0.558-0.46-1.111-0.726-1.658h-2.589c-1.436,0-2.6,1.164-2.6,2.6v40.739
						c0,1.436,1.164,2.6,2.6,2.6h30.121c1.436,0,2.6-1.164,2.6-2.6v-9.482C461.03,207.307,459.362,207.217,457.705,207.174z"/>
				</g>
			</g>
			<path style="fill:#62AFE8;" d="M401.059,302.281c-0.017,0.132-0.033,0.258-0.049,0.385c3.489,0.406,8.514,0.942,14.124,1.5
				c3.72,0.37,7.181,0.698,10.12,0.962l0.033-0.488c-2.93-0.319-6.383-0.679-10.096-1.048
				C409.587,303.034,404.559,302.571,401.059,302.281z"/>
			<g>
				<path style="fill:#FF91A0;" d="M445.216,212.285c-2.606,0.273-5.156-0.479-7.684-0.992c-2.369-0.481-4.509-0.412-6.896-0.278
					c-2.638,0.148-5.277,0.296-7.915,0.444c-0.215,0.012-0.473,0.052-0.561,0.249c-0.125,0.28,0.21,0.538,0.494,0.656
					c2.536,1.049,5.337,1.218,8.077,1.361c-2.07,0.714-4.273,1.04-6.462,0.956c-0.936-0.036-1.951-0.15-2.869,0.094
					c-0.278,0.074-0.581,0.109-0.717,0.398c-0.696,1.473,8.915,1.739,9.855,1.728c-2.992,1.54-6.431,0.862-9.662,1.294
					c-1.227,0.164-0.691,1.233,0.089,1.58c0.985,0.438,2.21,0.46,3.267,0.5c2.163,0.081,4.217-0.334,6.373-0.5
					c-2.538,1.556-5.904,0.68-8.685,1.742c-0.07,0.027-0.142,0.057-0.19,0.114c-0.127,0.153-0.009,0.385,0.129,0.528
					c0.752,0.784,1.918,0.937,2.938,0.958c2.012,0.04,3.964-0.14,5.964-0.373c-1.341,1.313-3.737,0.842-5.155,2.072
					c-0.062,0.054-0.125,0.116-0.144,0.196c-0.221,0.921,5.529,0.396,6.069,0.412c4.61,0.137,9.06,0.696,13.66,0.141
					c1.701-0.205,3.408-0.539,4.958-1.268c1.55-0.729,2.944-1.887,3.704-3.423"/>
			</g>
			<g>
				<g>
					<path style="fill:#62AFE8;" d="M481.206,166.75c-4.379-4.826-10.52-2.61-13.046,2.882c-1.427,3.102-1.485,6.694-0.805,10.04
						c0.813,4.001,7.628,22.703,2.664,24.59c-2.365,0.899-5.14,0.233-7.594,0.27c-4.538,0.069-9.073,0.271-13.599,0.607
						c-2.819,0.209-5.666,0.476-8.34,1.392c-5.776,1.979-7.126,10.304-5.399,15.408c0.739,2.182,2.228,4.139,4.243,5.257
						c2.95,1.636,7.528,2.131,10.843,1.701c3.734-0.485,7.551-0.578,11.314-1.111c8.598-1.218,18.056-2.846,25.184-8.165
						c3.524-2.629,6.668-6.531,7.166-10.951c0.823-7.312-1.333-16.049-4.017-22.833C487.28,179.417,485.984,172.016,481.206,166.75z
						"/>
				</g>
				<g>
					<path style="fill:#569BD0;" d="M452.327,204.99c0.001,0.02,0.224,0.03,0.647,0.031c0.618-0.008,1.232-0.016,1.851-0.025
						c2.213-0.065,4.463-0.13,6.802-0.198c1.537-0.054,3.101-0.109,4.696-0.165c0.833-0.029,1.763-0.093,2.652-0.405
						c0.878-0.332,1.729-0.922,2.274-1.786c1.03-1.773,1.008-3.933,0.768-5.984c-0.267-2.081-0.742-4.164-1.307-6.302
						c-1.198-4.239-2.809-8.117-3.28-11.859c-0.25-1.86-0.254-3.658,0.028-5.295c0.267-1.642,0.868-3.09,1.599-4.297
						c1.476-2.445,3.596-3.642,5.071-4.167c1.498-0.546,2.403-0.598,2.39-0.665c-0.003-0.02-0.224-0.006-0.648,0.04
						c-0.42,0.06-1.044,0.158-1.816,0.412c-0.77,0.249-1.699,0.643-2.651,1.311c-0.949,0.668-1.902,1.62-2.693,2.852
						c-0.778,1.232-1.428,2.734-1.725,4.43c-0.313,1.691-0.326,3.543-0.085,5.448c0.456,3.838,2.071,7.759,3.251,11.945
						c0.555,2.097,1.037,4.198,1.302,6.216c0.249,2.003,0.245,4.064-0.659,5.635c-0.476,0.763-1.207,1.278-1.997,1.591
						c-0.814,0.29-1.647,0.362-2.497,0.403c-1.594,0.08-3.157,0.158-4.693,0.236c-2.336,0.131-4.583,0.257-6.794,0.382
						c-0.617,0.044-1.23,0.089-1.846,0.133C452.547,204.942,452.326,204.971,452.327,204.99z"/>
				</g>
				<g style="opacity:0.11;">
					<path style="fill:#62AFE8;" d="M486.671,219.62c3.524-2.629,6.668-6.531,7.166-10.951c0.823-7.313-1.333-16.049-4.017-22.833
						c-2.353-5.948-3.644-12.737-7.622-17.891c-0.236,2.563,0.527,5.32,1.313,7.843c1.093,3.51,2.186,7.02,3.279,10.53
						c1.545,4.961,3.105,10.018,3.087,15.214c-0.018,5.196-1.863,10.649-5.995,13.799c-4.241,3.234-9.954,3.495-15.273,3.877
						c-8.429,0.605-17.178,1.98-24.062,6.882c-0.835,0.594-1.673,1.388-2.135,2.278c2.553,0.667,5.458,0.827,7.762,0.528
						c3.734-0.485,7.551-0.578,11.314-1.111C470.084,226.567,479.543,224.939,486.671,219.62z"/>
				</g>
			</g>
			<path style="fill:#E2A55C;" d="M495.312,257.072h-65.405c-1.819,0-3.294-1.475-3.294-3.294v-2.014
				c0-5.693,4.615-10.308,10.308-10.308h51.377c5.693,0,10.308,4.615,10.308,10.308v2.014
				C498.606,255.597,497.131,257.072,495.312,257.072z"/>
		</g>
		<g>
			<path style="fill:#CFB8FF;" d="M677.87,274.718c9.597-7.529,17.728-13.407,22.404-25.7c6.906-18.154,5.858-39.608-4.834-55.944
				c-12.865-19.657-38.762-27.158-61.072-27.877c-14.468-0.466-29.272,2.164-42.203,8.835
				c-12.625,6.514-20.222,17.987-24.463,31.471c-4.84,15.387-3.381,34.022,8.299,45.147c7.098,6.761,16.854,9.837,26.316,12.399
				c9.461,2.563,19.276,4.949,27.174,10.755c7.898,5.806,13.443,16.087,10.559,25.455c13.198-7.071,25.253-14.637,36.998-23.895
				C677.322,275.148,677.596,274.933,677.87,274.718z"/>
			<g>
				<path style="fill:#FCC26F;" d="M565.238,139.792c9.795-2.76,20.96-3.008,30.905-0.98c15.823,3.228,30.684,15.693,30.74,32.887
					c0.022,6.777-2.335,13.309-4.659,19.675c-2.324,6.366-4.677,12.9-4.648,19.677c0.029,6.777,2.936,13.96,8.87,17.234
					c-8.815,2.505-18.121,2.614-27.281,2.347c-8.891-0.259-17.842-0.867-26.431-3.181c-8.589-2.314-16.86-6.442-22.968-12.908
					c-9.598-10.16-12.814-24.914-12.63-38.89c0.04-3.023,0.221-6.058,0.847-9.016C540.761,153.525,552.336,143.428,565.238,139.792z
					"/>
			</g>
			<g style="opacity:0.35;">
				<path style="fill:#FCC26F;" d="M617.599,195.809c-6.225-1.217-12.548-1.939-18.887-2.159
					c-11.057-0.383-23.333,0.376-31.79-6.756c-7.991-6.739-9.711-18.357-9.249-28.8c0.242-5.484,0.956-10.943,2.082-16.315
					c-10.575,4.647-19.395,13.642-21.771,24.86c-0.627,2.958-0.808,5.993-0.847,9.016c-0.184,13.976,3.032,28.729,12.63,38.89
					c6.108,6.466,14.38,10.594,22.968,12.908c8.589,2.314,17.54,2.921,26.431,3.181c9.16,0.267,18.466,0.159,27.281-2.347
					c-5.934-3.275-8.84-10.457-8.87-17.234c-0.022-5.002,1.257-9.87,2.862-14.638C619.494,196.197,618.547,195.994,617.599,195.809z
					"/>
			</g>
			<g style="opacity:0.23;">
				<path style="fill:#CFB8FF;" d="M677.046,275.366c0.276-0.217,0.55-0.433,0.823-0.647c9.597-7.529,17.728-13.407,22.404-25.7
					c6.906-18.154,5.858-39.608-4.834-55.944c-4.149-6.339-9.658-11.408-15.96-15.398c-2.935,2.39-5.484,5.231-7.437,8.514
					c-3.143,5.283-4.712,11.328-6.244,17.282c-1.867,7.259-3.735,14.519-5.602,21.778c-2.787,10.834-6.612,22.983-16.709,27.798
					c-3.697,1.763-7.854,2.298-11.942,2.558c-15.873,1.009-31.978-1.84-46.542-8.233c-5.382-2.363-10.837-5.236-16.38-7.342
					c1.746,3.956,4.175,7.572,7.376,10.621c7.098,6.761,16.854,9.837,26.316,12.399c9.461,2.563,19.276,4.949,27.174,10.755
					c7.898,5.806,13.443,16.087,10.559,25.455C653.246,292.19,665.301,284.624,677.046,275.366z"/>
			</g>
		</g>
		<g>
			<g>
				<path style="fill:#62AFE8;" d="M246.996,254.604h58.587l9.864-75.977c1.174-9.043-5.868-17.058-14.987-17.058h-41.228
					c-8.853,0-15.92,7.378-15.54,16.223L246.996,254.604z"/>
				<path style="fill:#58A3D8;" d="M251.495,163.634c0.822,0.555,1.546,1.276,2.102,2.243c1.398,2.431,1.659,5.329,1.866,8.125
					c1.657,22.363,1.841,44.807,1.971,67.231c0.025,4.31,0.041,8.68-1.058,12.848c-0.046,0.174-0.098,0.35-0.158,0.523h-9.223
					l-3.305-76.813C243.432,171.767,246.632,166.429,251.495,163.634z"/>
			</g>
			<path style="fill:#FF91A0;" d="M326.349,179.208l6.636,3.124l16.357-16.632l12.617,5.52c0,0-15.055,30.193-24.127,30.258
				c-9.072,0.065-20.398-6.027-20.398-6.027"/>
			<g style="opacity:0.18;">
				<path style="fill:#FF91A0;" d="M346.195,190.128c-5.279,3.114-11.883,3.886-17.738,2.075c-2.596-0.803-5.026-2.111-7.154-3.801
					l-3.87,7.05c0,0,11.326,6.091,20.398,6.027c5.983-0.043,14.567-13.188,19.72-22.136
					C354.073,183.335,350.72,187.458,346.195,190.128z"/>
			</g>
			<path style="fill:#FF91A0;" d="M331.866,306.348l-3.131,10.425c0,0,11.315,2.943,11.123,9.583l-28.198-11.57l8.52-18.816
				L331.866,306.348z"/>
			<g>
				<path style="fill:#10124E;" d="M328.735,316.773l0.125-0.417c-4.94-2.275-9.881-4.55-14.821-6.825l-2.379,5.255l28.198,11.57
					C340.05,319.716,328.735,316.773,328.735,316.773z"/>
			</g>
			<path style="fill:#FF91A0;" d="M358.461,307.739l5.354,9.478c0,0,9.958-6.127,14.616-1.39l-27.872,12.334l-7.677-19.175
				L358.461,307.739z"/>
			<g>
				<polygon style="fill:#F69526;" points="254.928,302.531 308.726,278.478 307.318,275.777 253.519,299.83 				"/>
			</g>
			<path style="fill:#FF91A0;" d="M292.505,213.371l-24.6-4.86l3.491-10.083l-18.743-2.329c0,0-7.528,14.874-6.559,21.907
				c0.944,6.852,20.625,10.764,44.123,8.754C291.155,222.334,291.807,217.85,292.505,213.371z"/>
			<g>
				<polygon style="fill:#F69526;" points="311.081,302.531 312.489,299.83 258.692,275.777 257.284,278.478 				"/>
			</g>
			<path style="fill:#07216D;" d="M303.777,218.669c0,0,39.619-5.814,47.414,5.869c12.358,18.524-13.895,84.989-13.895,84.989
				l-26.369-8.291l19.974-52.438l-30.348-9.565L303.777,218.669z"/>
			<path style="fill:#FCC26F;" d="M285.155,167.38c0,0-19.213,1.562-24.148,9.829c-4.935,8.266-9.776,19.851-9.776,19.851
				l19.712,7.736l-4.06,24.518c0,0,18.774,10.448,45.607-0.551c0,0-0.773-20.036-2.431-32.698l10.488,3.811l7.178-22.668
				c0,0-19.013-11.771-34.316-9.829C278.104,169.323,285.155,167.38,285.155,167.38z"/>
			<path style="fill:#DDA264;" d="M293.408,167.38c-15.303,1.943-8.253,0-8.253,0s-1.595,0.131-3.978,0.512l0.017,1.357
				c0.055,4.451,3.707,8.014,8.158,7.96c4.451-0.055,8.014-3.707,7.96-8.158l-0.023-1.878
				C295.978,167.16,294.679,167.219,293.408,167.38z"/>
			<g>
				<path style="fill:#262154;" d="M316.598,333.072L316.598,333.072c1.321-0.205,2.225-1.443,2.019-2.763l-11.691-75.169
					l-4.783,0.744l11.691,75.169C314.04,332.373,315.277,333.277,316.598,333.072z"/>
				<path style="fill:#262154;" d="M247.714,333.072L247.714,333.072c-1.321-0.205-2.225-1.443-2.019-2.763l11.691-75.169
					l4.783,0.744l-11.691,75.169C250.272,332.373,249.035,333.277,247.714,333.072z"/>
			</g>
			<path style="fill:#ED798F;" d="M289.298,174.606L289.298,174.606c-3.025,0.037-5.507-2.385-5.544-5.41l-0.156-12.672
				l10.954-0.135l0.156,12.672C294.745,172.087,292.323,174.569,289.298,174.606z"/>
			<g>
				<g>
					<path style="fill:#DDA264;" d="M310.395,201.872c0.04-0.002,0.056-0.371,0.05-1.038c-0.003-0.666-0.04-1.63-0.109-2.818
						c-0.138-2.378-0.441-5.658-0.969-9.255c-0.531-3.597-1.185-6.826-1.738-9.142c-0.276-1.159-0.518-2.091-0.707-2.73
						c-0.187-0.64-0.308-0.988-0.347-0.979c-0.082,0.02,0.207,1.463,0.655,3.795c0.449,2.332,1.037,5.558,1.566,9.14
						c0.526,3.583,0.892,6.842,1.133,9.204C310.172,200.412,310.31,201.877,310.395,201.872z"/>
				</g>
				<g>
					<path style="fill:#DDA264;" d="M309.087,186.708c0.151,0.023,0.584-2.167,0.609-4.91c0.033-2.743-0.355-4.942-0.506-4.922
						c-0.165,0.018-0.039,2.214-0.072,4.916C309.095,184.494,308.922,186.687,309.087,186.708z"/>
				</g>
			</g>
			<g>
				<path style="fill:#FFEDFF;" d="M321.21,173.735c-0.23-0.11-0.466-0.221-0.706-0.334c-0.072,0.192-0.142,0.376-0.217,0.58
					c-1.087,2.947-2.488,7.054-3.913,11.63c-1.386,4.455-2.535,8.524-3.313,11.545l0.782,0.284c0.97-2.966,2.242-7.014,3.634-11.486
					c1.422-4.568,2.698-8.707,3.585-11.717C321.115,174.062,321.161,173.904,321.21,173.735z"/>
				<path style="fill:#FFEDFF;" d="M324.599,176.231c0.061-0.243,0.115-0.468,0.17-0.694c-0.216-0.116-0.443-0.236-0.68-0.36
					c-0.916,2.738-2.206,6.837-3.667,11.414c-1.537,4.837-2.918,9.123-3.742,11.88l0.66,0.24c0.158-0.389,0.322-0.799,0.499-1.252
					c1.037-2.658,2.362-6.37,3.683-10.517C322.843,182.794,323.909,178.999,324.599,176.231z"/>
				<g>
					<path style="fill:#FFEDFF;" d="M274.432,197.552c-2.837-1.249-6.38-2.759-10.254-4.356c-3.505-1.446-6.775-2.756-9.51-3.817
						c-0.139,0.295-0.275,0.586-0.407,0.871c2.695,1.178,5.954,2.561,9.477,4.014c3.904,1.61,7.508,3.048,10.413,4.165
						C274.257,198.141,274.354,197.851,274.432,197.552z"/>
					<path style="fill:#FFEDFF;" d="M272.73,201.595c-2.641-1.162-5.906-2.551-9.468-4.016c-3.965-1.631-7.609-3.075-10.449-4.151
						c-0.126,0.282-0.245,0.551-0.358,0.806c2.778,1.236,6.392,2.778,10.368,4.414c3.517,1.447,6.777,2.744,9.453,3.771
						C272.416,202.133,272.568,201.862,272.73,201.595z"/>
				</g>
			</g>
			<path style="fill:#092D84;" d="M267.264,226.185c0,0-7.35,13.55,0.641,23.827c7.991,10.277,37.819,4.998,37.819,4.998
				l4.311-0.442c2.146-0.22,4.177,1.014,4.971,3.021l24.689,62.42l26.164-12.126l-34.639-68.779
				c-2.942-5.841-8.75-9.684-15.275-10.123c-8.563-0.576-19.975-1.327-28.772-1.693
				C272.419,226.673,267.264,226.185,267.264,226.185z"/>
			<path style="fill:#4A93C6;" d="M247.418,263.766h71.618c1.9,0,3.44-1.54,3.44-3.44v-1.413c0-5.945-4.819-10.764-10.764-10.764
				h-56.97c-5.945,0-10.764,4.819-10.764,10.764v1.413C243.978,262.226,245.518,263.766,247.418,263.766z"/>
			<g>
				<path style="fill:#10124E;" d="M363.815,317.216l-0.214-0.379c-5.062,1.989-10.124,3.979-15.187,5.968l2.144,5.355
					l27.872-12.334C373.773,311.09,363.815,317.216,363.815,317.216z"/>
			</g>
			<g>
				<g>
					<path style="fill:#07216D;" d="M302.726,152.108c5.125-2.519,5.941-8.693,4.676-13.693c-0.089-0.351-1.561-3.742-1.611-3.686
						c1.566-1.74,1.276-4.435,0.635-6.687c-0.949-3.335-2.733-7.057-5.839-8.891c-2.76-1.631-7.391-2.068-10.533-2.045
						c-5.17,0.037-12.107,0.833-15.674,5.024c-0.172,0.203-0.348,0.419-0.592,0.524c-0.224,0.096-0.478,0.086-0.722,0.08
						c-4.633-0.114-8.84,2.031-9.649,7.012c-0.913,5.627-0.015,12.127,0.884,17.704"/>
				</g>
				<g>
					<path style="fill:#FF91A0;" d="M303.748,151.914l-2.008-16.11c-0.139-1.114-0.41-2.176-0.778-3.188
						c-0.018-0.05-0.042-0.097-0.061-0.147c-3.599,2.067-8.694,2.487-13.714,0.737c-2.572-0.896-4.799-2.255-6.574-3.881
						c0.249,1.856,0.154,3.882-0.35,5.938c-1.559,6.365-6.443,10.679-11.118,9.991v0c-0.241,0.15-0.522,0.247-0.832,0.251
						c-1.076,0.015-2.114,0.321-3.007,0.948c-2.793,1.959-3.12,6.308-0.731,9.713c2.26,3.222,6.141,4.439,8.918,2.901
						c3.005,4.294,8.221,6.828,13.783,6.134l6.785-0.846C300.173,163.596,304.51,158.025,303.748,151.914z"/>
				</g>
				<path style="fill:#FFEDFF;" d="M295.366,149.413c0.297,2.613-1.559,4.984-4.174,5.311c-2.616,0.326-4.997-1.518-5.35-4.124
					L295.366,149.413z"/>
				<g>
					<g>
						<path style="fill:#C65F79;" d="M266.128,148.095c0.002,0.117,0.769,0.039,1.883,0.374c0.547,0.188,1.176,0.481,1.751,0.983
							c0.57,0.502,1.099,1.167,1.527,1.949c0.833,1.586,1.163,3.222,1.32,4.397c0.157,1.182,0.155,1.93,0.246,1.935
							c0.067,0.006,0.216-0.744,0.16-1.972c-0.058-1.219-0.329-2.938-1.219-4.634c-0.457-0.837-1.048-1.557-1.697-2.086
							c-0.654-0.531-1.374-0.817-1.982-0.967c-0.615-0.122-1.123-0.151-1.466-0.095
							C266.309,148.016,266.125,148.055,266.128,148.095z"/>
					</g>
					<g>
						<path style="fill:#C65F79;" d="M270.07,155.229c0.063-0.06-0.129-0.325-0.31-0.783c-0.183-0.452-0.335-1.129-0.199-1.84
							c0.138-0.711,0.529-1.283,0.867-1.636c0.338-0.359,0.614-0.534,0.578-0.613c-0.025-0.066-0.381-0.022-0.844,0.304
							c-0.457,0.315-0.997,0.96-1.167,1.836c-0.166,0.876,0.097,1.675,0.404,2.138C269.708,155.108,270.022,155.281,270.07,155.229z
							"/>
					</g>
				</g>
				<path style="fill:#07216D;" d="M300.902,132.47c-2.322-6.181-8.63-10.211-15.47-9.359l-3.348,0.417
					c-8.009,0.998-13.692,8.3-12.694,16.308l0.491,3.942c0.051,0.412-0.071,0.79-0.297,1.089c-0.118,0.156-0.27,0.283-0.438,0.388
					c4.675,0.688,9.559-3.626,11.118-9.991c0.503-2.056,0.599-4.083,0.35-5.938c1.775,1.626,4.002,2.985,6.574,3.881
					C292.208,134.957,297.303,134.536,300.902,132.47z"/>
			</g>
			<path style="fill:#FF91A0;" d="M267.905,208.511l0.29-0.838c-6.527-0.485-13.032-1.194-19.362-2.787
				c-1.691,4.497-3.207,9.723-2.739,13.12c0.944,6.852,20.625,10.764,44.123,8.754c0.938-4.427,0.387-5.06,1.085-9.539
				L267.905,208.511z"/>
			<g style="opacity:0.18;">
				<path style="fill:#FF91A0;" d="M272.897,223.532c-3.509-0.851-7.099-1.461-10.456-2.792c-3.357-1.331-6.538-3.495-8.247-6.676
					c-1.547-2.878-1.742-6.329-1.182-9.548c0.361-2.077,1.02-4.082,1.776-6.054c-0.901-0.397-1.795-0.811-2.683-1.239
					c-1.709,3.581-6.821,14.91-6.012,20.783c0.86,6.242,17.272,10.043,37.952,9.15C280.429,225.668,276.699,224.453,272.897,223.532
					z"/>
			</g>
			<path style="fill:#DDA264;" d="M273.42,200.157c0.942-1.912,1.776-4.328,2.676-6.993c0.459-1.393,0.919-2.785,1.382-4.191
				c0.534-1.439,0.876-3.077,0.822-4.739c-0.046-1.662-0.465-3.297-1.289-4.655c-0.819-1.354-1.914-2.434-3.057-3.291
				c-2.291-1.721-4.838-2.598-7.002-2.694c-0.95-0.053-1.811,0.005-2.579,0.118c-0.189,0.136-0.369,0.276-0.549,0.417
				c0.893-0.144,1.926-0.223,3.099-0.128c2.083,0.144,4.511,1.027,6.709,2.711c1.093,0.836,2.131,1.882,2.892,3.156
				c0.762,1.269,1.154,2.804,1.198,4.383c0.048,1.591-0.26,3.113-0.781,4.544c-0.453,1.41-0.902,2.806-1.351,4.203
				c-0.872,2.672-1.654,5.072-2.548,7.004c-0.633,1.511-1.279,3.053-1.945,4.644c-0.084,0.206-0.152,0.377-0.22,0.549l-0.104,0.63
				c0.138-0.273,0.31-0.625,0.53-1.088C272.028,203.169,272.731,201.647,273.42,200.157z"/>
			<g>
				<path style="fill:#FF91A0;" d="M348.167,167.301c2.56-4.289,7.389-4.839,11.876-5.586c0.621-0.103,2.624-0.905,2.993-0.126
					c0.304,0.641-0.699,1.484-1.155,1.785c-1.285,0.848-2.971,0.983-4.469,0.986c1.823,0.607,3.766,0.325,5.552-0.268
					c1.776-0.59,3.432-1.712,5.296-1.99c0.976-0.145,1.177,0.79,0.766,1.526c-0.366,0.656-1.453,0.991-2.093,1.285
					c-0.961,0.441-1.956,0.812-2.978,1.085c-0.857,0.23-2.119,0.637-2.99,0.506c1.929,0.289,3.89,0.06,5.77-0.415
					c0.957-0.242,1.898-0.547,2.827-0.881c0.545-0.196,1.683-0.771,1.965,0.173c0.071,0.237-0.01,0.495-0.135,0.709
					c-0.375,0.646-1.091,1.003-1.774,1.305c-1.934,0.854-3.894,1.805-5.994,2.16c2.204,0.259,4.46,0.089,6.668-0.021
					c0.4-0.02,1.247-0.001,1.271,0.572c0.012,0.298-0.383,0.729-0.591,0.927c-0.502,0.478-1.225,0.672-1.889,0.79
					c-0.97,0.172-1.921,0.313-2.906,0.413c-0.92,0.093-1.846,0.188-2.736,0.441c-1.197,0.34-2.237,1.075-3.092,1.964
					c-0.645,0.67-1.118,1.481-1.569,2.288c-0.439,0.786-0.945,1.508-1.278,2.342"/>
			</g>
			<g>
				<path style="fill:#FF91A0;" d="M283.702,215.324c4.074,0.729,8.256,1.659,11.926,3.642c2.882,1.557,5.841,3.37,6.987,6.62
					c0.95,2.695-0.688,2.28-2.934,2.194c-2.293-0.088-4.597-0.306-6.807-0.955c1.478,1.089,3.198,2.024,3.81,3.853
					c0.059,0.175,0.105,0.359,0.084,0.542s-0.122,0.366-0.289,0.443c-0.094,0.043-0.201,0.05-0.305,0.047
					c-0.695-0.019-1.319-0.429-1.834-0.897c-0.898-0.816-1.695-1.477-2.763-2.063c-1.001-0.55-2.095-0.907-3.212-1.133
					c-2.31-0.467-4.687-0.405-7.031-0.476"/>
			</g>
			<g>
				<path style="fill:#ED798F;" d="M302.052,227.502c0.023-0.036-0.436-0.395-1.247-0.875c-0.809-0.481-1.979-1.065-3.335-1.548
					c-1.357-0.48-2.634-0.763-3.565-0.899c-0.932-0.137-1.515-0.148-1.52-0.106c-0.015,0.109,2.294,0.373,4.968,1.332
					C300.036,226.346,301.996,227.596,302.052,227.502z"/>
			</g>
			<g>
				<path style="fill:#ED798F;" d="M302.611,225.788c0.029-0.03-0.327-0.442-1.001-1.005c-0.672-0.563-1.679-1.257-2.892-1.835
					c-1.215-0.574-2.389-0.916-3.25-1.08c-0.862-0.166-1.406-0.181-1.411-0.14c-0.021,0.11,2.134,0.39,4.513,1.533
					C300.959,224.381,302.54,225.874,302.611,225.788z"/>
			</g>
		</g>
		<g>
			<g>
				<path style="fill:#FF91A0;" d="M472.815,330.499c-2.924-1.623-5.94-3.158-9.189-3.952c-3.244-0.793-6.763-0.807-9.834,0.572
					c0.14,1.066,1.509,1.383,2.583,1.444c1.759,0.1,3.518,0.2,5.276,0.299c-1.687,1.317-3.951,1.668-6.088,1.548
					c-2.137-0.119-4.227-0.658-6.35-0.927c-0.715-0.091-1.762,0.197-1.586,0.896c0.075,0.297,0.366,0.479,0.636,0.623
					c3.81,2.034,8.382,2.598,12.571,1.549c-3.485,1.489-7.386,1.988-11.134,1.423c-1.137-0.171-2.565-0.318-3.178,0.655
					c1.857,1.597,4.387,2.237,6.837,2.247c2.45,0.01,4.861-0.555,7.246-1.117c-2.729,2.315-6.549,1.976-9.675,3.377
					c-0.13,0.511,0.517,0.847,1.034,0.952c1.812,0.368,3.686,0.426,5.517,0.171c0.933-0.13,1.904-0.338,2.798-0.04
					c0.464,0.155,0.873,0.437,1.273,0.718c1.3,0.916,2.555,2.132,3.996,2.814c1.083,0.513,2.224,0.699,3.28,1.315"/>
			</g>
			<path style="fill:#FF91A0;" d="M508.783,448.566l3.786,10.205c0,0-11.106,3.655-10.492,10.269l27.407-13.335l-9.696-18.237
				L508.783,448.566z"/>
			<g>
				<path style="fill:#10124E;" d="M512.57,458.772l-0.151-0.408c4.786-2.584,9.572-5.168,14.359-7.751l2.708,5.093l-27.407,13.335
					C501.464,462.426,512.57,458.772,512.57,458.772z"/>
			</g>
			<polygon style="fill:#E2A55C;" points="482.792,395.414 504.309,453.579 529.431,443.714 504.84,386.237 			"/>
			<path style="fill:#C68647;" d="M502.74,449.338c3.904-1.466,8.535-3.292,13.468-5.382c4.073-1.728,7.871-3.432,11.196-4.979
				l-0.201-0.471c-3.341,1.509-7.148,3.191-11.22,4.918c-4.924,2.086-9.534,3.94-13.411,5.46L502.74,449.338z"/>
			<path style="fill:#C68647;" d="M513.922,444.855c-2.47-6.622-5.212-13.977-8.198-21.986c-3.494-9.462-6.661-18.039-9.431-25.542
				c-0.968-2.605-1.797-4.802-2.461-6.508l-0.74,0.308c0.514,1.75,1.201,3.978,2.044,6.601c2.133,6.643,5.262,15.762,8.965,25.744
				c3.083,8.305,6.074,15.887,8.557,21.905C513.078,445.203,513.499,445.028,513.922,444.855z"/>
			<path style="fill:#FF91A0;" d="M450.86,446.807l-4.619,9.857c0,0-10.395-5.353-14.679-0.276l28.728,10.182l6.198-19.703
				L450.86,446.807z"/>
			<g>
				<path style="fill:#10124E;" d="M446.241,456.664l0.184-0.394c5.199,1.599,10.397,3.199,15.596,4.798l-1.731,5.503
					l-28.728-10.182C435.847,451.311,446.241,456.664,446.241,456.664z"/>
			</g>
			<g>
				
					<rect x="523.194" y="299.225" transform="matrix(0.9973 -0.0731 0.0731 0.9973 -21.3499 39.5475)" style="fill:#EF8096;" width="13.08" height="24.58"/>
				<circle style="fill:#07216D;" cx="549.465" cy="267.468" r="12.508"/>
				<g>
					<path style="fill:#07216D;" d="M548.69,298.977c3.476-3.355,5.265-7.264,6.899-11.677c1.617-4.365,1.359-9.066-1.53-12.843
						c-1.209-1.581-2.688-1.672-4.21-2.85c-1.014-0.785-1.435-2.02-2.276-2.946c-0.782-0.861-1.966-1.375-3.08-1.709
						c-2.658-0.797-5.443-0.527-8.064-1.491c-3.207-1.179-5.452-2.775-9.017-2.659c-5.253,0.17-10.75,2.166-12.411,7.645
						c-1.068,3.522-1.708,9.44,0.82,12.502"/>
				</g>
				<polygon style="fill:#EF8096;" points="516.742,279.198 509.19,286.374 513.85,288.096 				"/>
				<g>
					<path style="fill:#FF91A0;" d="M550.765,297.55c-0.551-1.058-1.426-1.859-2.487-2.373c-0.422-0.204-0.734-0.549-0.901-0.953
						l0,0.001c-4.526-0.383-8.85-4.437-10.378-10.217c-0.802-3.034-0.701-6.038,0.117-8.579c-1.705,0.279-3.539,0.305-5.422,0.031
						c-4.602-0.67-8.413-2.971-10.485-5.938c-1.534,1.361-2.731,3.138-3.364,5.247l-5.632,18.783
						c-0.728,2.428-0.614,4.908,0.174,7.127c1.491,4.198,5.496,6.989,9.935,7.365l6.52,0.552c3.651,0.309,7.165-0.609,10.11-2.434
						c2.028,1.589,5.214,1.814,8.051,0.337C550.663,304.595,552.347,300.587,550.765,297.55z"/>
				</g>
				<path style="fill:#FFEDFF;" d="M517.101,291.302c0.004-0.01,0.006-0.02,0.01-0.03l-3.754-1.499l-1.081,3.604
					c-0.046,0.154-0.08,0.309-0.119,0.463C514.18,294.33,516.307,293.291,517.101,291.302z"/>
				<g>
					<g>
						<path style="fill:#C65F79;" d="M549.465,298.019c0.025-0.05-0.696-0.43-1.978-0.468c-1.266-0.051-3.078,0.36-4.658,1.531
							c-1.574,1.171-2.53,2.708-3.04,3.845c-0.516,1.149-0.65,1.92-0.588,1.938c0.082,0.028,0.348-0.693,0.936-1.762
							c0.584-1.061,1.545-2.481,3.02-3.577c1.474-1.092,3.14-1.534,4.335-1.585C548.698,297.878,549.44,298.111,549.465,298.019z"/>
					</g>
					<g>
						<path style="fill:#C65F79;" d="M542.459,304.297c0.021,0.063,0.435,0.008,0.987-0.356c0.545-0.354,1.206-1.073,1.475-2.074
							c0.266-1.001,0.054-1.954-0.242-2.533c-0.296-0.592-0.627-0.846-0.677-0.802c-0.067,0.051,0.139,0.38,0.315,0.948
							c0.179,0.561,0.298,1.392,0.071,2.245c-0.23,0.853-0.748,1.513-1.183,1.91C542.769,304.037,542.426,304.219,542.459,304.297z"
							/>
					</g>
				</g>
				<path style="fill:#07216D;" d="M547.378,294.224c-0.153-0.37-0.185-0.789-0.055-1.198l2.349-7.381
					c2.123-6.674-1.635-13.793-8.343-15.805l-9.207-2.761c-3.956-1.186-8.043-0.124-10.917,2.435c2.07,2.97,5.884,5.275,10.49,5.945
					c1.883,0.274,3.717,0.248,5.422-0.031c-0.818,2.541-0.919,5.545-0.117,8.579C538.528,289.787,542.852,293.841,547.378,294.224z"
					/>
			</g>
			<path style="fill:#07216D;" d="M531.952,314.817c0,0-19.284-6.75-27.139,10.534l-5.676,17.092l-27.063-15.396l-10.699,16.483
				c0,0,28.968,23.673,46.979,30.112c18.011,6.44,27.747-46.596,27.747-46.596L531.952,314.817z"/>
			<path style="fill:#07216D;" d="M522.313,313.801c0,0,21.979-4.478,30.376-1.193c8.397,3.285,3.719,9.695,3.719,9.695
				l-7.02,13.836"/>
			<path style="fill:#E2A55C;" d="M522.439,369.188c0,0-44.584-11.86-54.786,9.485c-10.203,21.345-24.534,68.784-24.534,68.784
				l26.893,7.585l15.831-62.677h38.543l-0.588-23.239"/>
			<path style="fill:#62AFE8;" d="M475.603,329.055c-1.967,2.756-3.846,5.389-5.806,8.136c-2.01,2.805-3.934,5.49-5.956,8.31
				c0.13,0.103,0.254,0.2,0.393,0.31c1.8-2.425,3.86-5.246,6.033-8.284c2.124-2.97,4.088-5.774,5.776-8.222L475.603,329.055z"/>
			<g>
				<path style="fill:#62AFE8;" d="M508.128,347.94c0.085-0.135-2.509-1.835-5.794-3.797c-3.285-1.962-6.012-3.44-6.09-3.301
					c-0.078,0.139,2.516,1.839,5.794,3.797C505.316,346.597,508.043,348.075,508.128,347.94z"/>
			</g>
			<path style="fill:#C68647;" d="M507.065,377.026c-3.064-0.311-7.561-0.819-13.138-0.196c-2.777,0.334-5.816,0.998-8.88,2.31
				c-3.044,1.31-6.131,3.35-8.551,6.262c-2.445,2.879-4.265,6.401-5.767,10.116c-1.51,3.724-2.711,7.701-3.766,11.792
				c-3.667,15.165-6.764,28.998-9.101,39.515c0.429,0.047,0.853,0.138,1.266,0.268c2.601-10.444,5.867-24.268,9.513-39.349
				c1.044-4.051,2.213-7.956,3.663-11.593c1.443-3.633,3.163-7.006,5.416-9.724c2.223-2.739,5.04-4.667,7.908-5.972
				c2.878-1.299,5.783-2.011,8.46-2.41c5.384-0.76,9.858-0.452,12.923-0.346c3.074,0.149,4.783,0.218,4.794,0.094
				C511.816,377.678,510.135,377.382,507.065,377.026z"/>
			<path style="fill:#C68647;" d="M457.241,447.083c5.08,1.542,9.805,2.958,13.74,4.121l0.118-0.466
				c-3.913-1.22-8.62-2.668-13.69-4.208c-4.689-1.424-9.078-2.74-12.82-3.849c-0.05,0.161-0.099,0.318-0.147,0.472
				C448.17,444.313,452.551,445.659,457.241,447.083z"/>
			<g>
				<g>
					<polygon style="fill:#4A93C6;" points="493.755,444.966 492.451,442.264 555.017,418.212 556.322,420.913 					"/>
					<g>
						<polygon style="fill:#4A93C6;" points="555.018,444.966 492.45,420.913 493.755,418.212 556.322,442.264 						"/>
					</g>
					<g>
						<path style="fill:#262154;" d="M486.26,475.507L486.26,475.507c-1.321-0.205-2.225-1.443-2.019-2.763l11.691-75.169
							l4.783,0.744l-11.691,75.169C488.818,474.808,487.58,475.712,486.26,475.507z"/>
						<g>
							<path style="fill:#262154;" d="M562.513,475.507L562.513,475.507c1.321-0.205,2.225-1.443,2.019-2.763l-11.691-75.169
								l-4.783,0.744l11.691,75.169C559.955,474.808,561.192,475.712,562.513,475.507z"/>
						</g>
					</g>
				</g>
				<path style="fill:#62AFE8;" d="M504.84,386.237l17.982-64.473c1.313-4.707,5.601-7.964,10.488-7.964h40.123
					c7.06,0,12.254,6.616,10.578,13.474l-16.93,69.273L504.84,386.237z"/>
				<g style="opacity:0.17;">
					<path style="fill:#62AFE8;" d="M580.469,316.387c-4.053,12.854-10.537,24.944-19.061,35.386
						c-5.365,6.572-11.745,12.646-19.655,15.71c-10.204,3.953-21.896,2.515-32.073,6.538c-0.551,0.218-1.092,0.457-1.629,0.706
						l-3.21,11.51l62.241,10.31l16.93-69.273C585.042,323.058,583.469,318.939,580.469,316.387z"/>
				</g>
				<path style="fill:#4C96C9;" d="M563.297,400.331h-77.822c-2.09,0-3.784-1.694-3.784-3.784v-4.007
					c0-4.498,3.646-8.144,8.144-8.144h69.102c4.498,0,8.144,3.646,8.144,8.144v4.007
					C567.081,398.637,565.387,400.331,563.297,400.331z"/>
			</g>
		</g>
		<g>
			<path style="fill:#FF91A0;" d="M254.657,441.056l0.039,10.885c0,0,11.682-0.479,13.431,5.93l-30.345-2.86l2.674-20.481
				L254.657,441.056z"/>
			<g>
				<path style="fill:#4A93C6;" d="M254.696,451.941l-0.001-0.435c-5.389-0.738-10.777-1.477-16.166-2.215l-0.747,5.72l30.345,2.86
					C266.378,451.462,254.696,451.941,254.696,451.941z"/>
			</g>
			<polygon style="fill:#417FB0;" points="235.15,371.507 230.813,441.351 263.652,442.73 262.108,368.766 			"/>
			<path style="fill:#4A93C6;" d="M248.2,436.28c-0.528-0.079,0.266,0.003,0.37,0.001c0.103-0.002,0.9-0.08,0.37-0.001
				c0.172-0.026,0.343-0.034,0.512-0.033c0.331-22.141,0.979-44.275,1.981-66.396l-2.008,0.204
				c-0.997,22.058-1.643,44.128-1.974,66.206C247.696,436.24,247.947,436.242,248.2,436.28z"/>
			<path style="fill:#4A93C6;" d="M231.141,436.062c10.798,0.568,21.599,1.065,32.403,1.499l-0.021-1.001
				c-10.777-0.433-21.55-0.928-32.321-1.494L231.141,436.062z"/>
			<g>
				<path style="fill:#FF91A0;" d="M290.425,330.857c5.865-1.282,12.205-0.238,17.349,2.855c3.155,1.897-1.666,1.91-2.995,1.484
					c-0.884-0.284-4.479-1.325-4.871-2.18c1.153,2.518,3.527,4.441,6.229,5.046c2.03,0.455,4.046,0.522,6.118,0.505
					c0.514-0.004,1.101,0.024,1.426,0.422c0.74,0.907-1.806,1.699-2.298,1.862c-2.289,0.757-5.255,0.284-7.522-0.326
					c-1.258-0.338-2.515-0.677-3.773-1.015c0.279,0.075,0.738,0.707,0.981,0.903c1.385,1.121,3.138,1.69,4.86,2.043
					c0.904,0.185,1.815,0.287,2.729,0.405c0.793,0.103,1.473,0.418,2.286,0.436c0.377,0.009,0.805,0.027,1.053,0.311
					c0.551,0.631-0.4,1.486-1.21,1.699c-1.79,0.471-3.684,0.451-5.503,0.165c-1.876-0.296-3.556-1.074-5.402-1.475
					c0.301,0.065,0.898,0.878,1.168,1.094c0.487,0.388,1.01,0.732,1.56,1.026c1.078,0.576,2.269,0.857,3.346,1.435
					c0.177,0.095,0.36,0.21,0.437,0.396c0.164,0.396-0.261,0.797-0.673,0.913c-0.555,0.157-1.148,0.068-1.713-0.05
					c-1.838-0.384-3.43-1.147-5.121-1.921c-1.203-0.551-2.49-0.789-3.691-1.368c-3.336-1.611-7.082-2.086-10.676-1.067"/>
			</g>
			<g>
				<path style="fill:#FCC26F;" d="M204.97,278.16c-3.932-3.51-6.049-7.695-8.018-12.436c-1.948-4.69-1.867-9.825,1.122-14.066
					c1.251-1.775,2.859-1.937,4.469-3.286c1.072-0.899,1.478-2.263,2.356-3.308c0.816-0.971,2.084-1.583,3.285-1.994
					c2.864-0.981,5.911-0.806,8.727-1.968c3.446-1.422,5.826-3.257,9.717-3.283c5.733-0.038,11.81,1.904,13.854,7.806
					c1.076,3.106,1.358,6.484,0.812,9.725"/>
			</g>
			<polyline style="fill:#ED798F;" points="237.099,251.883 246.861,263.016 238.958,265.756 			"/>
			<g>
				<path style="fill:#092D84;" d="M251.292,340.797c3.386,7.999,6.771,15.997,10.157,23.996c-4.283,1.175-8.797,1.108-13.236,0.982
					c-6.579-0.187-13.156-0.485-19.725-0.894c0.402-5.893-0.362-11.863-2.235-17.465c-0.434-1.297-0.932-2.681-0.563-3.998"/>
			</g>
			<g style="opacity:0.29;">
				<path style="fill:#417FB0;" d="M250.836,441.826c-0.009,0.121-0.007,0.244-0.014,0.365l12.83,0.539l-1.545-73.963l-26.949,2.739
					c5.839,7.76,10.936,16.116,14.362,25.19c3.843,10.178,5.522,21.319,3.694,32.044C252.469,433.114,251.15,437.4,250.836,441.826z
					"/>
			</g>
			
				<rect x="219.437" y="279.496" transform="matrix(-0.9994 -0.0342 0.0342 -0.9994 441.854 591.1221)" style="fill:#ED798F;" width="13.08" height="24.58"/>
			<path style="fill:#092D84;" d="M292.264,328.406l-33.367,0.853c0,0-7.04-21.696-11.277-28.617
				c-4.237-6.921-23.457-3.379-23.457-3.379s-8.789,44.462,17.253,52.252c17.489,5.232,40.325,1.811,53.451-1.002
				C294.339,341.771,293.446,335.075,292.264,328.406z"/>
			<path style="fill:#FF91A0;" d="M325.449,421.102l7.896,7.493c0,0,7.726-8.775,13.567-5.611l-23.035,19.96l-12.958-16.085
				L325.449,421.102z"/>
			<g>
				<path style="fill:#4A93C6;" d="M333.345,428.595l-0.316-0.299c-4.257,3.385-8.514,6.771-12.771,10.156l3.619,4.492l23.035-19.96
					C341.071,419.819,333.345,428.595,333.345,428.595z"/>
			</g>
			<path style="fill:#4A93C6;" d="M242.417,351.517c0,0,28.655-4.04,38.822,1.979c10.166,6.019,52.159,65.235,52.159,65.235
				l-24.078,19.436c0,0-41.946-52.227-47.431-56.689c-5.484-4.462-17.046-1.239-17.046-1.239L242.417,351.517z"/>
			<path style="fill:#3A70A1;" d="M305.951,433.985c7.946-6.746,16.001-13.362,24.163-19.844c-0.186-0.259-0.38-0.528-0.58-0.806
				c-8.177,6.493-16.248,13.118-24.208,19.875C305.54,433.477,305.75,433.736,305.951,433.985z"/>
			<path style="fill:#3A70A1;" d="M318.25,423.564c-8.57-13.721-17.764-27.066-27.719-39.801
				c-6.044-7.732-12.597-15.053-21.751-19.059c-7.92-3.466-16.897-3.164-25.439-2.251l0.169,2.001
				c9.264-0.924,18.57-0.948,27.163,3.333c9.092,4.531,15.544,13.531,21.513,21.411c8.737,11.533,16.897,23.494,24.564,35.763
				C317.201,424.446,317.709,423.987,318.25,423.564z"/>
			<g>
				<path style="fill:#FF91A0;" d="M202.647,276.693c0.556-1.177,1.475-2.087,2.61-2.693c0.451-0.241,0.777-0.63,0.942-1.077
					l0,0.001c4.918-0.61,9.459-5.213,10.879-11.579c0.745-3.341,0.507-6.612-0.492-9.347c1.87,0.232,3.871,0.182,5.912-0.197
					c4.989-0.926,9.045-3.596,11.177-6.918c1.73,1.418,3.111,3.304,3.89,5.577l6.938,20.237c0.897,2.616,0.878,5.325,0.113,7.777
					c-1.447,4.64-5.694,7.852-10.517,8.451l-7.085,0.879c-3.966,0.492-7.837-0.36-11.124-2.223c-2.143,1.818-5.606,2.2-8.762,0.71
					C203.058,284.368,201.052,280.071,202.647,276.693z"/>
			</g>
			<g>
				<path style="fill:#FCC26F;" d="M250.359,366.05l-17.982-64.473c-1.313-4.707-5.601-7.964-10.488-7.964h-40.123
					c-7.06,0-12.254,6.616-10.577,13.474l16.93,69.273L250.359,366.05z"/>
				<g style="opacity:0.26;">
					<path style="fill:#FCC26F;" d="M246.038,350.557c-6.592-1.182-13.396-1.492-20.079-1.212
						c-5.125,0.215-10.427,0.722-15.241-1.049c-5.164-1.9-9.084-6.2-12.124-10.786c-5.976-9.017-9.279-19.5-14.017-29.224
						c-2.258-4.635-4.989-9.207-8.306-13.172c-3.972,2.335-6.276,7.085-5.081,11.973l16.93,69.273l62.24-10.31L246.038,350.557z"/>
				</g>
				<g>
					<polygon style="fill:#EDAC69;" points="200.182,420.806 198.877,418.105 261.444,394.052 262.749,396.753 					"/>
					<g>
						<polygon style="fill:#EDAC69;" points="261.444,420.806 198.877,396.753 200.182,394.052 262.749,418.105 						"/>
					</g>
					<g>
						<path style="fill:#262154;" d="M192.686,466.356L192.686,466.356c-1.321-0.205-2.225-1.443-2.019-2.763l11.691-90.179
							l4.783,0.744l-11.691,90.179C195.244,465.658,194.007,466.562,192.686,466.356z"/>
						<g>
							<path style="fill:#262154;" d="M268.939,466.356L268.939,466.356c1.321-0.205,2.225-1.443,2.019-2.763l-11.691-90.179
								l-4.783,0.744l11.691,90.179C266.382,465.658,267.619,466.562,268.939,466.356z"/>
						</g>
					</g>
				</g>
				<path style="fill:#EDAC69;" d="M191.902,380.144h77.822c2.09,0,3.784-1.694,3.784-3.784v-4.007c0-4.498-3.646-8.144-8.144-8.144
					h-69.102c-4.498,0-8.144,3.646-8.144,8.144v4.007C188.118,378.45,189.812,380.144,191.902,380.144z"/>
			</g>
			<g>
				<g>
					<path style="fill:#ED798F;" d="M204.085,277.149c0.031,0.1,0.83-0.187,2.148-0.169c1.305,0.004,3.14,0.416,4.793,1.543
						c1.655,1.132,2.763,2.639,3.445,3.771c0.687,1.14,1.007,1.915,1.095,1.882c0.067-0.022-0.112-0.856-0.723-2.087
						c-0.605-1.218-1.712-2.853-3.478-4.062c-1.772-1.209-3.765-1.58-5.143-1.471C204.825,276.651,204.056,277.096,204.085,277.149z
						"/>
				</g>
				<g>
					<path style="fill:#ED798F;" d="M211.989,283.695c0.032-0.086-0.349-0.27-0.842-0.691c-0.491-0.413-1.084-1.111-1.371-2.031
						c-0.284-0.921-0.19-1.832-0.018-2.451c0.168-0.626,0.379-0.993,0.303-1.046c-0.056-0.046-0.406,0.245-0.704,0.903
						c-0.297,0.644-0.489,1.691-0.156,2.772c0.337,1.079,1.087,1.835,1.696,2.198C211.515,283.723,211.969,283.764,211.989,283.695z
						"/>
				</g>
			</g>
			<path style="fill:#FCC26F;" d="M206.198,272.923c0.151-0.41,0.168-0.868,0.008-1.308l-2.874-7.946
				c-2.599-7.185,1.195-15.106,8.423-17.584l9.919-3.401c4.263-1.462,8.763-0.477,12.005,2.19c-2.131,3.326-6.19,6-11.183,6.926
				c-2.041,0.379-4.042,0.428-5.912,0.197c1,2.736,1.238,6.006,0.492,9.347C215.657,267.71,211.116,272.314,206.198,272.923z"/>
			<path style="fill:#FFEDFF;" d="M239.323,268.286c0.759,2.407,3.103,3.873,5.52,3.613c-0.095-0.402-0.203-0.804-0.34-1.203
				l-1.257-3.666l-3.927,1.238C239.321,268.274,239.321,268.28,239.323,268.286z"/>
		</g>
		<g>
			<g>
				<path style="fill:#BABEFF;" d="M591.419,42.58c-26.84-34.108-108.147-18.195-101.068,32.155
					c1.263,8.982,5.456,17.246,8.233,25.88c1.15,3.575,2.06,7.441,1.02,11.05c-1.039,3.607-4.305,6.237-8.088,6.071
					c8.183,10.42,27.522,8.995,38.93,8.114c16.354-1.263,33.161-4.725,46.784-14.354c15.631-11.048,20.772-27.295,21.406-45.59
					C598.966,56.429,596.221,48.682,591.419,42.58z"/>
			</g>
			<g style="opacity:0.18;">
				<path style="fill:#BABEFF;" d="M580.253,32.808c-5.789,3.582-10.514,9.055-14.029,14.972c-4.989,8.4-7.986,17.801-11.811,26.791
					c-3.825,8.99-8.729,17.887-16.474,23.843c-9.908,7.619-23.245,9.408-35.68,8.142c-0.774-0.079-1.552-0.174-2.331-0.283
					c0.221,1.816,0.182,3.635-0.324,5.393c-1.039,3.607-4.305,6.237-8.088,6.071c8.183,10.42,27.522,8.995,38.93,8.114
					c16.354-1.263,33.161-4.725,46.784-14.354c15.631-11.048,20.772-27.295,21.406-45.59c0.328-9.477-2.417-17.224-7.218-23.326
					C588.343,38.671,584.545,35.427,580.253,32.808z"/>
			</g>
		</g>
		<g>
			<g>
				<path style="fill:#BACBFD;" d="M390.287,27.263c-11.84-3.336-25.336-3.637-37.357-1.184
					c-19.127,3.902-37.09,18.969-37.157,39.754c-0.026,8.192,2.822,16.087,5.632,23.783c2.81,7.695,5.654,15.593,5.618,23.785
					c-0.036,8.192-3.549,16.874-10.721,20.832c10.656,3.028,21.904,3.16,32.977,2.837c10.747-0.314,21.568-1.048,31.949-3.845
					c10.382-2.797,20.38-7.787,27.764-15.602c11.602-12.281,15.489-30.115,15.266-47.009c-0.048-3.654-0.267-7.323-1.024-10.899
					C419.874,43.863,405.883,31.658,390.287,27.263z"/>
			</g>
			<g style="opacity:0.26;">
				<path style="fill:#BACBFD;" d="M408.99,117.622c1.501-1.589,2.868-3.275,4.119-5.036c-14.031,0.523-28.292,3.195-41.333-1.625
					c-14.927-5.517-25.166-20.39-27.884-36.07c-2.718-15.68,1.233-31.923,8.126-46.266c0.423-0.88,0.869-1.752,1.318-2.622
					c-0.135,0.027-0.272,0.049-0.406,0.076c-19.127,3.902-37.09,18.969-37.157,39.754c-0.026,8.192,2.822,16.087,5.632,23.783
					c2.81,7.695,5.654,15.593,5.618,23.785c-0.036,8.192-3.549,16.874-10.721,20.833c10.656,3.028,21.904,3.16,32.977,2.837
					c10.747-0.314,21.568-1.048,31.949-3.845C391.608,130.427,401.607,125.438,408.99,117.622z"/>
			</g>
		</g>
		<g>
			<g>
				<path style="fill:#BABEFF;" d="M172.337,164.64c-8.325-9.827-19.392-17.321-31.941-20.567
					c-10.482-2.711-21.391-3.441-32.216-3.254c-12.727,0.219-24.039,2.513-34.755,9.609c-24.523,16.239-36.372,48.575-21.549,75.428
					c9.44,17.101,28.596,28.089,48.122,28.66c13.39,0.392,26.596-3.685,39.99-3.464c8.033,0.132,16.921,2.417,21.16,9.243
					c2.763,4.449,3.004,9.977,2.896,15.213c13.757-15.818,22.093-36.266,23.317-57.193c0.48-8.206,1.59-16.324-0.283-24.392
					c-1.82-7.84-5.044-15.349-9.415-22.105C176.046,169.316,174.265,166.915,172.337,164.64z"/>
			</g>
			<g style="opacity:0.21;">
				<path style="fill:#BABEFF;" d="M186.684,225.212c-2.159-0.278-4.322-0.481-6.473-0.599c-15.33-0.841-30.637,1.637-45.985,2.042
					c-15.348,0.405-31.447-1.523-44.156-10.135c-13.606-9.22-21.651-25.355-23.146-41.722c-0.621-6.796-0.189-13.613,1.054-20.311
					c-20.739,17.161-29.777,46.593-16.101,71.369c9.44,17.101,28.596,28.089,48.122,28.66c13.39,0.392,26.596-3.685,39.99-3.464
					c8.033,0.132,16.921,2.417,21.16,9.243c2.763,4.449,3.004,9.977,2.896,15.213C176.284,261.434,184.218,243.693,186.684,225.212z
					"/>
			</g>
			<g>
				<path style="fill:#FCC26F;" d="M204.097,98.615c-10.393-2.929-22.24-3.192-32.793-1.039
					c-16.79,3.425-32.559,16.651-32.618,34.897c-0.023,7.191,2.478,14.122,4.944,20.877c2.466,6.755,4.963,13.688,4.932,20.879
					c-0.031,7.191-3.116,14.813-9.412,18.287c9.354,2.658,19.228,2.773,28.948,2.49c9.434-0.275,18.933-0.92,28.046-3.375
					c9.113-2.455,17.89-6.835,24.372-13.696c10.185-10.781,13.596-26.436,13.401-41.266c-0.042-3.208-0.234-6.428-0.899-9.567
					C230.07,113.187,217.788,102.473,204.097,98.615z"/>
			</g>
			<g style="opacity:0.17;">
				<path style="fill:#FCC26F;" d="M220.515,177.935c10.185-10.781,13.596-26.436,13.401-41.266
					c-0.042-3.208-0.234-6.428-0.899-9.567c-1.531-7.23-5.595-13.582-11.055-18.571c-2.369,3.2-4.304,6.882-6.016,10.42
					c-4.653,9.616-9.087,19.339-13.297,29.157c-4.101,9.564-8.446,19.791-17.117,25.545c-5.211,3.458-11.494,4.919-17.702,5.67
					c-6.556,0.792-13.266,0.84-19.755-0.278c-1.087,5.562-4.032,10.77-8.926,13.471c9.354,2.658,19.228,2.773,28.948,2.49
					c9.434-0.275,18.933-0.919,28.046-3.375C205.257,189.176,214.034,184.796,220.515,177.935z"/>
			</g>
		</g>
	</g>
</g>
</svg>
